<svg xmlns="http://www.w3.org/2000/svg" enable-background="new 0 0 4680 3120" viewBox="0 0 4680 3120"><path fill="#82b4fc" d="M870.489 2537.15c1076.802-170.129 2848.419-200.391 3005.869-35.784 157.45 164.607-135.487 322.614-1400.03 327.982S44.879 2667.593 870.489 2537.15zM2286.401 565.863c-452.547 12.842-237.842 330.686-638.625 410.95-400.783 80.264-665.585 300.36-443.724 535.446s526.439 97.056 661.622 85.661c135.183-11.395 324.32 269.989 561.346 17.074s710.681-569.16 886.564-585.477c175.883-16.317 256.994 37.192 364.346-62.335 107.352-99.527 320.865-20.333 394.818-212.966 73.954-192.633-177.728-292.16-320.865-299.651-143.137-7.491 5.964-136.983-139.558-155.177-145.522-18.193-472.225-33.835-805 228.614s-520.924 37.861-520.924 37.861z"/><path fill="#fff" d="M3523.462 754.216c118.684-32.641 263.61-38.766 263.61-38.766s36.381-58.085-76.936-65.042c-113.316-6.956-147.311-12.307-169.378 17.123s-17.296 86.685-17.296 86.685z"/><linearGradient id="a" x1="3819.635" x2="3630.997" y1="607.672" y2="612.851" gradientUnits="userSpaceOnUse"><stop offset="0" stop-color="#e1f3ff"/><stop offset="1" stop-color="#bbddf9"/></linearGradient><path fill="url(#a)" d="M3728.624 503.258c121.666 8.026 186.972 151.698 100.196 199.054-86.776 47.356-72.463-49.763-143.136-33.711-70.674 16.053-126.139 40.935-126.139 40.935s62.622-162.133 169.079-206.278z"/><linearGradient id="b" x1="2633.103" x2="2633.103" y1="2462.53" y2="2757.444" gradientUnits="userSpaceOnUse"><stop offset="0" stop-color="#e1f3ff"/><stop offset="1" stop-color="#bbddf9"/></linearGradient><path fill="url(#b)" d="M2123.705 2366.98s-150.293-4.816-202.181 0c-51.887 4.816-69.779 132.33-42.941 228.298 26.838 95.968 123.455 83.125 187.867 65.467 64.411-17.658 1115.869-85.615 1333.556-66.886 0 0-119.281-59.395-32.206-251.493l-1244.095 24.614z"/><linearGradient id="c" x1="2905.614" x2="2973.568" y1="1095.43" y2="2218.663" gradientUnits="userSpaceOnUse"><stop offset="0" stop-color="#e1f3ff"/><stop offset="1" stop-color="#bbddf9"/></linearGradient><path fill="url(#c)" d="M2377.772 427.81s1313.278 70.632 1350.852 75.448c0 0-252.278 126.816-252.278 772.136s107.353 878.62 95.425 1116.2c-11.928 237.581-125.245 201.194-171.764 202.264-46.52 1.07-143.137-148.755-32.206-251.493l-1244.096 24.614s125.244-343.529 39.363-915.006c-85.882-571.476-57.255-793.004 214.704-1024.163z"/><path fill="#2983e5" d="M2596.641 2321.765a1.789 1.789 0 0 1-1.789-1.776 495.04 495.04 0 0 1 .054-12.566c.019-.988.916-1.792 1.821-1.758a1.79 1.79 0 0 1 1.758 1.82 488.012 488.012 0 0 0-.054 12.478 1.79 1.79 0 0 1-1.775 1.803l-.015-.001zm.482-25.034-.096-.003a1.79 1.79 0 0 1-1.693-1.881c.232-4.391.556-8.62.959-12.568a1.8 1.8 0 0 1 1.962-1.598 1.79 1.79 0 0 1 1.599 1.962 253.24 253.24 0 0 0-.945 12.394 1.79 1.79 0 0 1-1.786 1.694zm2.635-24.881a1.788 1.788 0 0 1-1.765-2.094c.751-4.349 1.66-8.515 2.703-12.382a1.789 1.789 0 1 1 3.456.933c-1.015 3.76-1.901 7.817-2.633 12.059a1.789 1.789 0 0 1-1.761 1.484zm6.607-24.083a1.79 1.79 0 0 1-1.659-2.458 88.818 88.818 0 0 1 5.579-11.462 1.789 1.789 0 1 1 3.093 1.799 85.136 85.136 0 0 0-5.352 10.998 1.793 1.793 0 0 1-1.661 1.123zm12.57-21.496a1.789 1.789 0 0 1-1.383-2.922 83.364 83.364 0 0 1 8.819-9.222 1.788 1.788 0 1 1 2.39 2.662 79.978 79.978 0 0 0-8.438 8.825 1.79 1.79 0 0 1-1.388.657zm18.479-16.704a1.789 1.789 0 0 1-1.007-3.27c3.364-2.284 7.029-4.475 10.892-6.514a1.79 1.79 0 0 1 1.67 3.165 111.296 111.296 0 0 0-10.553 6.31 1.774 1.774 0 0 1-1.002.309zm22.035-11.73a1.785 1.785 0 0 1-1.649-1.098 1.788 1.788 0 0 1 .957-2.342 183.42 183.42 0 0 1 11.813-4.46 1.79 1.79 0 0 1 1.153 3.388 179.388 179.388 0 0 0-11.583 4.372c-.225.095-.461.14-.691.14zm23.651-8.099a1.789 1.789 0 0 1-.481-3.513 287.055 287.055 0 0 1 12.199-3.111 1.788 1.788 0 1 1 .81 3.486 282.492 282.492 0 0 0-12.046 3.072 1.783 1.783 0 0 1-.482.066zm24.36-5.7a1.79 1.79 0 0 1-.341-3.546c3.97-.775 8.132-1.522 12.369-2.22.998-.162 1.897.5 2.056 1.474a1.787 1.787 0 0 1-1.473 2.056 425.44 425.44 0 0 0-12.268 2.202 1.734 1.734 0 0 1-.343.034zm24.696-4.094a1.789 1.789 0 0 1-.248-3.561l.884-.123a206.847 206.847 0 0 0 11.376-1.896 1.783 1.783 0 0 1 2.1 1.412c.191.97-.442 1.91-1.412 2.1a211.11 211.11 0 0 1-11.576 1.928l-.874.122a1.773 1.773 0 0 1-.25.018zm24.558-4.829a1.79 1.79 0 0 1-.454-3.519 177.788 177.788 0 0 0 11.867-3.575 1.789 1.789 0 0 1 1.154 3.387 179.967 179.967 0 0 1-12.109 3.647 1.8 1.8 0 0 1-.458.06zm23.679-8.089a1.787 1.787 0 0 1-1.644-1.086c-.39-.908.031-1.96.94-2.349a149.319 149.319 0 0 0 11.16-5.332 1.787 1.787 0 0 1 2.418.741 1.788 1.788 0 0 1-.741 2.42 152.606 152.606 0 0 1-11.429 5.46 1.77 1.77 0 0 1-.704.146zm22.079-11.756a1.789 1.789 0 0 1-.982-3.287 123.759 123.759 0 0 0 9.98-7.256 1.79 1.79 0 0 1 2.249 2.783 127.498 127.498 0 0 1-10.269 7.467 1.781 1.781 0 0 1-.978.293zm19.415-15.741a1.788 1.788 0 0 1-1.27-3.049 103.73 103.73 0 0 0 8.134-9.227 1.79 1.79 0 1 1 2.823 2.2 107.325 107.325 0 0 1-8.417 9.547c-.349.352-.81.529-1.27.529zm15.315-19.727a1.79 1.79 0 0 1-1.54-2.699 89.748 89.748 0 0 0 5.499-10.969 1.79 1.79 0 0 1 3.303 1.378 93.275 93.275 0 0 1-5.719 11.408c-.334.568-.93.882-1.543.882zm9.6-23.038a1.787 1.787 0 0 1-1.733-2.238 85.877 85.877 0 0 0 2.208-12.049 1.782 1.782 0 0 1 1.974-1.582 1.79 1.79 0 0 1 1.583 1.974 89.485 89.485 0 0 1-2.303 12.553 1.788 1.788 0 0 1-1.729 1.342zm2.74-24.8a1.792 1.792 0 0 1-1.788-1.734 91.84 91.84 0 0 0-1.207-12.212 1.79 1.79 0 1 1 3.529-.588 95.83 95.83 0 0 1 1.256 12.689 1.79 1.79 0 0 1-1.733 1.844l-.057.001zm-4.054-24.64a1.793 1.793 0 0 1-1.716-1.28 109.386 109.386 0 0 0-4.178-11.582 1.79 1.79 0 1 1 3.291-1.4 112.93 112.93 0 0 1 4.318 11.962 1.79 1.79 0 0 1-1.715 2.3zm-9.726-23.024a1.79 1.79 0 0 1-1.569-.927 136.69 136.69 0 0 0-6.453-10.536 1.788 1.788 0 1 1 2.963-2.003 140.002 140.002 0 0 1 6.624 10.813 1.79 1.79 0 0 1-1.565 2.653zm-13.964-20.754a1.79 1.79 0 0 1-1.4-.672 172.321 172.321 0 0 0-8.09-9.385 1.79 1.79 0 1 1 2.628-2.43 177.156 177.156 0 0 1 8.258 9.58 1.79 1.79 0 0 1-1.396 2.907zm-16.978-18.386c-.442 0-.886-.163-1.232-.492a217.392 217.392 0 0 0-9.25-8.283 1.788 1.788 0 1 1 2.31-2.731 219.45 219.45 0 0 1 9.404 8.421 1.79 1.79 0 0 1 .066 2.53 1.795 1.795 0 0 1-1.298.555zm-19.098-16.19a1.78 1.78 0 0 1-1.104-.383 125.719 125.719 0 0 1-9.586-8.33 1.79 1.79 0 0 1 2.488-2.574 121.83 121.83 0 0 0 9.31 8.091 1.789 1.789 0 0 1-1.108 3.196zm-17.89-17.442c-.526 0-1.045-.23-1.4-.671-2.752-3.441-5.175-6.997-7.202-10.57a1.79 1.79 0 0 1 3.113-1.765c1.933 3.408 4.25 6.807 6.884 10.1a1.79 1.79 0 0 1-1.395 2.906zm-12.186-21.732a1.79 1.79 0 0 1-1.695-1.217 61.298 61.298 0 0 1-2.831-12.561 1.788 1.788 0 0 1 1.571-1.983 1.783 1.783 0 0 1 1.983 1.572 57.745 57.745 0 0 0 2.666 11.826 1.79 1.79 0 0 1-1.694 2.363zm-2.851-24.678a1.787 1.787 0 0 1-1.782-1.961c.402-4.158 1.234-8.391 2.471-12.581a1.79 1.79 0 0 1 3.431 1.013c-1.172 3.973-1.96 7.98-2.341 11.912a1.79 1.79 0 0 1-1.779 1.617zm6.924-23.894a1.79 1.79 0 0 1-1.611-2.565c1.777-3.695 3.896-7.423 6.297-11.079a1.792 1.792 0 0 1 2.478-.514 1.79 1.79 0 0 1 .514 2.478c-2.315 3.524-4.354 7.113-6.063 10.666a1.79 1.79 0 0 1-1.615 1.014zm13.629-20.931a1.79 1.79 0 0 1-1.378-2.929 140.422 140.422 0 0 1 8.527-9.392 1.79 1.79 0 0 1 2.54 2.52 136.051 136.051 0 0 0-8.307 9.15c-.355.43-.866.651-1.382.651zm17.587-17.802a1.787 1.787 0 0 1-1.169-3.144 187.39 187.39 0 0 1 9.862-7.923 1.788 1.788 0 0 1 2.504.358 1.788 1.788 0 0 1-.358 2.505 182.86 182.86 0 0 0-9.669 7.77 1.796 1.796 0 0 1-1.17.434zm20.013-15.053a1.79 1.79 0 0 1-.988-3.283 229.486 229.486 0 0 1 10.73-6.657 1.79 1.79 0 0 1 1.803 3.091 227.255 227.255 0 0 0-10.562 6.554c-.304.2-.646.295-.983.295zm21.627-12.638a1.79 1.79 0 0 1-.823-3.379 263.532 263.532 0 0 1 11.342-5.522 1.79 1.79 0 0 1 1.489 3.253 261.605 261.605 0 0 0-11.188 5.447 1.776 1.776 0 0 1-.82.201zm22.774-10.435a1.79 1.79 0 0 1-.669-3.449 282.962 282.962 0 0 1 11.798-4.453 1.79 1.79 0 0 1 1.188 3.375 279.97 279.97 0 0 0-11.647 4.397c-.219.088-.446.13-.67.13zm23.629-8.328a1.79 1.79 0 0 1-.52-3.502c4.005-1.216 8.09-2.36 12.142-3.401a1.79 1.79 0 0 1 .891 3.466 287.507 287.507 0 0 0-11.991 3.359 1.806 1.806 0 0 1-.522.078zm24.247-6.226a1.79 1.79 0 0 1-.367-3.541 283.746 283.746 0 0 1 12.383-2.323 1.79 1.79 0 0 1 .58 3.531 280.94 280.94 0 0 0-12.226 2.293c-.124.027-.248.04-.37.04zm87.169-3.684c-.082 0-.166-.006-.25-.017a220.427 220.427 0 0 0-12.348-1.377 1.788 1.788 0 0 1-1.634-1.932 1.778 1.778 0 0 1 1.931-1.635c4.213.351 8.434.822 12.547 1.4a1.787 1.787 0 0 1 1.523 2.021 1.787 1.787 0 0 1-1.769 1.54zm-62.465-.377a1.79 1.79 0 0 1-.208-3.566c4.178-.493 8.403-.893 12.556-1.186.968-.07 1.84.673 1.91 1.659a1.79 1.79 0 0 1-1.658 1.911c-4.097.29-8.266.683-12.388 1.17a1.91 1.91 0 0 1-.212.012zm37.513-1.712-.054-.001a242.94 242.94 0 0 0-12.43-.045c-1.027.028-1.805-.763-1.828-1.75a1.79 1.79 0 0 1 1.751-1.828c4.204-.092 8.415-.077 12.612.046a1.791 1.791 0 0 1 1.737 1.841 1.793 1.793 0 0 1-1.788 1.737zM1869.636 1718.45c-.827 0-1.571-.518-1.749-1.274-.205-.868.414-1.719 1.381-1.903 3.79-.718 7.543-1.567 11.155-2.524.95-.25 1.943.235 2.223 1.086.28.85-.262 1.743-1.209 1.994-3.703.98-7.547 1.85-11.429 2.586-.125.024-.25.035-.372.035zm23.12-6.216c-.711 0-1.384-.383-1.663-1.012-.365-.823.082-1.757 1-2.085a133.065 133.065 0 0 0 11.222-4.589c.879-.409 1.957-.098 2.411.688.454.788.11 1.756-.767 2.163a136.957 136.957 0 0 1-11.542 4.719 1.935 1.935 0 0 1-.661.116zm22.183-10.316c-.583 0-1.154-.255-1.497-.725-.543-.741-.312-1.737.514-2.223a117.55 117.55 0 0 0 9.931-6.542c.765-.562 1.891-.461 2.518.224.626.686.515 1.697-.25 2.259a121.273 121.273 0 0 1-10.235 6.744 1.942 1.942 0 0 1-.981.263zm19.326-14.204c-.454 0-.909-.154-1.257-.463-.703-.623-.71-1.639-.017-2.27 2.86-2.6 5.618-5.38 8.197-8.262.62-.692 1.747-.801 2.515-.247.771.555.894 1.565.275 2.257a116.795 116.795 0 0 1-8.44 8.507c-.35.318-.811.478-1.273.478zm15.662-17.475a1.93 1.93 0 0 1-.977-.261c-.827-.485-1.06-1.48-.519-2.222a120.198 120.198 0 0 0 6.274-9.547c.461-.783 1.545-1.082 2.419-.666.873.415 1.205 1.387.742 2.17a123.065 123.065 0 0 1-6.44 9.8c-.343.47-.916.726-1.499.726zm11.745-19.812a1.98 1.98 0 0 1-.702-.129c-.909-.348-1.331-1.291-.943-2.106a134.633 134.633 0 0 0 4.407-10.38c.315-.839 1.328-1.29 2.267-1.007.937.284 1.439 1.195 1.123 2.035a138.205 138.205 0 0 1-4.505 10.613c-.291.609-.952.974-1.647.974zm8.034-21.261c-.148 0-.3-.017-.452-.052-.957-.223-1.53-1.1-1.281-1.958a156.598 156.598 0 0 0 2.726-10.859c.185-.87 1.128-1.44 2.093-1.274.971.167 1.607 1.008 1.42 1.879a158.926 158.926 0 0 1-2.776 11.063c-.209.722-.935 1.201-1.73 1.201zm4.731-22.056c-.077 0-.155-.005-.233-.014-.979-.114-1.671-.919-1.544-1.798.524-3.621.944-7.353 1.249-11.09.06-.731.657-1.313 1.42-1.455a1.517 1.517 0 0 1-.409-.886c-.088-.883.638-1.663 1.622-1.742 4.218-.339 8.342-.802 12.26-1.373.988-.142 1.895.452 2.053 1.327.159.875-.503 1.7-1.478 1.842a196.203 196.203 0 0 1-12.301 1.384c.281.307.438.708.403 1.137-.31 3.797-.737 7.588-1.269 11.269-.118.809-.888 1.399-1.773 1.399zm-16.23-13.038c-2.211 0-4.404-.036-6.577-.106-.987-.032-1.759-.776-1.724-1.662.037-.886.883-1.572 1.853-1.546 3.286.106 6.617.131 9.987.073.81-.014 1.613-.032 2.411-.053.958-.025 1.812.67 1.842 1.557.03.886-.747 1.626-1.735 1.652-.811.022-1.628.04-2.45.054a207.22 207.22 0 0 1-3.607.031zm-18.986-.907c-.065 0-.129-.003-.195-.009a190.984 190.984 0 0 1-12.509-1.63c-.972-.16-1.615-.997-1.437-1.869.178-.871 1.107-1.452 2.082-1.289 4.025.662 8.146 1.199 12.248 1.597.982.095 1.693.887 1.586 1.768-.098.822-.873 1.432-1.775 1.432zm62.074-3.478c-.8 0-1.529-.485-1.734-1.212-.242-.86.339-1.733 1.297-1.95a128.483 128.483 0 0 0 11.724-3.231c.924-.305 1.955.122 2.296.955.34.832-.136 1.755-1.064 2.06a132.773 132.773 0 0 1-12.079 3.328c-.149.034-.295.05-.44.05zm-86.666-.573c-.15 0-.303-.017-.455-.053a180.746 180.746 0 0 1-12.103-3.299c-.934-.29-1.428-1.204-1.105-2.042.322-.838 1.338-1.282 2.276-.992a176.656 176.656 0 0 0 11.84 3.227c.956.225 1.527 1.103 1.276 1.96-.211.722-.935 1.199-1.729 1.199zm61.651-4.408h-.038c-.988-.018-1.773-.752-1.752-1.638a200.73 200.73 0 0 0-.049-11.159c-.028-.886.75-1.625 1.738-1.65.971-.031 1.811.673 1.839 1.559a207.411 207.411 0 0 1 .051 11.316c-.021.874-.819 1.572-1.789 1.572zm48.32-2.758c-.65 0-1.277-.319-1.594-.874-.45-.789-.103-1.756.777-2.161a90.927 90.927 0 0 0 10.435-5.636c.81-.51 1.925-.333 2.493.391.568.725.373 1.727-.436 2.236a94.439 94.439 0 0 1-10.859 5.865 1.922 1.922 0 0 1-.816.179zm-133.603-.17a1.96 1.96 0 0 1-.711-.133 176.734 176.734 0 0 1-11.405-4.908c-.875-.413-1.21-1.384-.75-2.168.46-.783 1.54-1.087 2.417-.672a174.315 174.315 0 0 0 11.162 4.803c.907.353 1.323 1.298.93 2.112-.293.605-.952.966-1.643.966zm-22.133-10.456a1.93 1.93 0 0 1-.947-.245 177.508 177.508 0 0 1-10.472-6.363c-.798-.523-.972-1.528-.389-2.243.582-.715 1.702-.873 2.5-.349a175.479 175.479 0 0 0 10.259 6.233c.838.47 1.092 1.461.568 2.212-.339.488-.922.755-1.519.755zm176-2.183c-.473 0-.945-.167-1.297-.5-.681-.643-.652-1.659.066-2.27a79.43 79.43 0 0 0 8.192-8.084c.611-.697 1.736-.818 2.512-.27.777.547.911 1.557.301 2.254a82.676 82.676 0 0 1-8.542 8.428 1.898 1.898 0 0 1-1.232.442zm-69.287-6.895c-.928 0-1.712-.642-1.782-1.485a225.739 225.739 0 0 0-1.214-11.13c-.119-.88.581-1.68 1.562-1.786.983-.107 1.872.522 1.99 1.402.506 3.767.92 7.56 1.23 11.274.074.884-.665 1.654-1.65 1.721a2.079 2.079 0 0 1-.136.004zm-126.918-4.163c-.408 0-.818-.124-1.153-.379a181.5 181.5 0 0 1-9.376-7.611c-.709-.617-.728-1.633-.04-2.27.685-.637 1.819-.653 2.53-.037a177.872 177.872 0 0 0 9.194 7.465c.756.572.85 1.585.213 2.262-.354.376-.86.57-1.368.57zm211.584-6.423c-.31 0-.624-.073-.909-.224-.85-.452-1.132-1.436-.629-2.199a94.8 94.8 0 0 0 5.627-9.79c.405-.809 1.465-1.17 2.365-.808.902.363 1.305 1.313.901 2.121a98.375 98.375 0 0 1-5.812 10.111c-.336.507-.931.789-1.543.789zm-229.571-9.194c-.488 0-.974-.178-1.327-.528a184.587 184.587 0 0 1-8.177-8.647c-.615-.694-.487-1.704.286-2.256.773-.551 1.899-.437 2.514.257a181.53 181.53 0 0 0 8.029 8.491c.663.658.607 1.673-.126 2.268a1.9 1.9 0 0 1-1.199.415zm141.911-2.56c-.86 0-1.618-.558-1.763-1.345-.67-3.649-1.44-7.346-2.287-10.988-.202-.868.418-1.718 1.386-1.9.97-.18 1.914.376 2.117 1.244a245.174 245.174 0 0 1 2.315 11.122c.161.875-.5 1.701-1.475 1.845a1.956 1.956 0 0 1-.293.022zm97.952-8.634c-.192 0-.388-.028-.58-.087-.935-.288-1.433-1.2-1.112-2.039a144.9 144.9 0 0 0 3.578-10.639c.252-.857 1.233-1.369 2.188-1.141.956.227 1.524 1.106 1.272 1.963a147.258 147.258 0 0 1-3.653 10.859c-.255.665-.949 1.084-1.693 1.084zm-255.447-6.387c-.565 0-1.122-.239-1.469-.687a184.195 184.195 0 0 1-6.905-9.496c-.514-.757-.247-1.745.597-2.206.845-.461 1.944-.222 2.459.536a180.43 180.43 0 0 0 6.785 9.33c.565.727.366 1.728-.444 2.235-.313.194-.67.288-1.023.288zm152.379-6.988c-.8 0-1.529-.485-1.733-1.212a247.776 247.776 0 0 0-3.304-10.769c-.282-.85.257-1.744 1.205-1.997.939-.253 1.943.23 2.225 1.08a250.503 250.503 0 0 1 3.343 10.898c.243.859-.337 1.732-1.296 1.95-.148.034-.296.05-.44.05zm109.541-8.316c-.121 0-.242-.011-.364-.034-.968-.18-1.59-1.029-1.389-1.898a248.208 248.208 0 0 0 2.265-10.993c.161-.874 1.082-1.47 2.057-1.322.975.145 1.635.971 1.474 1.845a251.048 251.048 0 0 1-2.293 11.121c-.175.76-.919 1.281-1.75 1.281zm-274.953-3.882c-.643 0-1.263-.311-1.584-.856a175.285 175.285 0 0 1-5.551-10.188c-.406-.808-.005-1.759.896-2.123.902-.364 1.96-.004 2.366.804a172.78 172.78 0 0 0 5.453 10.009c.461.784.127 1.755-.747 2.169a1.976 1.976 0 0 1-.833.185zm158.264-9.33c-.743 0-1.436-.418-1.691-1.083a246.717 246.717 0 0 0-4.298-10.469c-.362-.825.091-1.757 1.011-2.081.92-.325 1.959.081 2.319.907a246.524 246.524 0 0 1 4.351 10.599c.322.838-.175 1.752-1.109 2.04-.193.059-.39.087-.583.087zm120.829-8.969c-.081 0-.163-.005-.244-.015-.979-.12-1.665-.929-1.531-1.807a582.748 582.748 0 0 0 1.569-11.134c.116-.881 1.007-1.506 1.988-1.405.981.104 1.683.903 1.566 1.783a581.762 581.762 0 0 1-1.578 11.19c-.122.804-.889 1.388-1.77 1.388zm-289.379-2.19c-.723 0-1.405-.397-1.675-1.041a158.643 158.643 0 0 1-4.055-10.75c-.285-.849.251-1.744 1.197-2 .947-.256 1.945.225 2.229 1.074a155.167 155.167 0 0 0 3.978 10.546c.348.83-.121 1.756-1.046 2.067a1.928 1.928 0 0 1-.628.104zm159.389-9.744c-.685 0-1.339-.355-1.635-.953a232.433 232.433 0 0 0-5.319-10.096c-.443-.793-.086-1.757.798-2.155.884-.398 1.959-.076 2.402.716a236.92 236.92 0 0 1 5.389 10.23c.402.81-.004 1.759-.908 2.119a1.951 1.951 0 0 1-.727.139zm132.977-10.409c-.066 0-.132-.003-.198-.009-.983-.097-1.691-.89-1.584-1.771l1.365-11.188c.109-.882 1.013-1.515 1.975-1.419.982.098 1.69.891 1.582 1.772l-1.365 11.185c-.099.822-.875 1.43-1.775 1.43zm-299.568-1.367c-.819 0-1.558-.508-1.744-1.255a130.735 130.735 0 0 1-2.286-11.181c-.139-.877.542-1.69 1.52-1.815.979-.124 1.885.486 2.023 1.364a127.705 127.705 0 0 0 2.233 10.93c.217.865-.391 1.723-1.354 1.917-.131.027-.262.04-.392.04zm155.358-8.31c-.625 0-1.232-.294-1.56-.817a213.082 213.082 0 0 0-6.38-9.576c-.529-.749-.281-1.741.554-2.216.833-.474 1.94-.252 2.469.497a216.826 216.826 0 0 1 6.474 9.718c.485.772.181 1.751-.68 2.187a1.95 1.95 0 0 1-.877.207zm147.004-12.697c-.072 0-.143-.003-.216-.011-.981-.106-1.681-.905-1.563-1.785.5-3.736 1.026-7.464 1.597-11.173.135-.879 1.04-1.493 2.017-1.37.979.121 1.663.932 1.528 1.809-.569 3.691-1.092 7.4-1.59 11.117-.108.814-.881 1.413-1.773 1.413zm-305.822-1.235c-.947 0-1.738-.667-1.786-1.526a99.46 99.46 0 0 1-.152-5.458c0-2.012.065-4.013.193-5.948.058-.885.915-1.56 1.891-1.508.986.052 1.738.812 1.68 1.698a88.2 88.2 0 0 0-.186 5.758c0 1.74.05 3.523.148 5.299.049.885-.712 1.639-1.699 1.683-.029.002-.059.002-.089.002zm145.396-5.041c-.558 0-1.109-.234-1.458-.672a188.362 188.362 0 0 0-7.515-8.867c-.622-.689-.504-1.7.264-2.258.766-.557 1.892-.453 2.516.237a191.553 191.553 0 0 1 7.648 9.022c.574.722.388 1.724-.417 2.239a1.92 1.92 0 0 1-1.038.299zm163.895-15.991c-.097 0-.196-.007-.295-.022-.975-.145-1.634-.972-1.471-1.847a274.362 274.362 0 0 1 2.289-11.119c.199-.868 1.145-1.429 2.113-1.25.968.178 1.592 1.026 1.393 1.895a271.646 271.646 0 0 0-2.264 11.001c-.146.785-.905 1.342-1.765 1.342zm-307.7-1.341c-.114 0-.231-.01-.348-.031-.969-.171-1.6-1.016-1.409-1.885.861-3.927 2.045-7.648 3.517-11.06.358-.826 1.387-1.239 2.315-.917.921.32 1.379 1.25 1.022 2.077-1.397 3.237-2.522 6.777-3.344 10.521-.167.765-.915 1.295-1.753 1.295zm128.026-.107c-.481 0-.961-.173-1.313-.514a161.106 161.106 0 0 0-8.745-7.874c-.723-.604-.764-1.62-.09-2.269.676-.65 1.808-.685 2.529-.081a164.82 164.82 0 0 1 8.93 8.042c.672.65.629 1.666-.096 2.268-.344.287-.78.428-1.215.428zm-18.339-15.273c-.388 0-.778-.113-1.107-.344a135.214 135.214 0 0 0-10.035-6.459c-.829-.482-1.066-1.476-.528-2.22.536-.743 1.643-.956 2.474-.473a139.255 139.255 0 0 1 10.304 6.631c.776.549.91 1.558.297 2.255-.352.4-.876.61-1.405.61zm203.098-5.296c-.147 0-.297-.016-.447-.051-.958-.221-1.533-1.096-1.287-1.954a168.89 168.89 0 0 1 3.512-10.889c.305-.843 1.313-1.305 2.254-1.031.94.274 1.455 1.179 1.15 2.023a166.019 166.019 0 0 0-3.451 10.697c-.206.724-.933 1.205-1.731 1.205zm-303.595-.058c-.348 0-.7-.091-1.009-.281-.815-.501-1.024-1.5-.466-2.231a42.582 42.582 0 0 1 8.757-8.599c.766-.56 1.892-.455 2.517.233.624.688.508 1.699-.259 2.258a39.241 39.241 0 0 0-8.061 7.921c-.347.455-.908.699-1.479.699zm79.502-6.817c-.273 0-.552-.057-.813-.176a115.536 115.536 0 0 0-11.249-4.471c-.925-.312-1.393-1.237-1.046-2.067.349-.83 1.383-1.25 2.304-.938a119.418 119.418 0 0 1 11.621 4.618c.88.404 1.227 1.371.777 2.16-.316.554-.943.874-1.594.874zm-60.325-7.074c-.714 0-1.388-.386-1.665-1.017-.363-.825.089-1.757 1.008-2.082 3.882-1.373 8.117-2.292 12.586-2.732.984-.095 1.865.54 1.974 1.421.107.881-.601 1.674-1.584 1.771-4.153.408-8.078 1.259-11.664 2.527a1.966 1.966 0 0 1-.655.112zm36.958-.775c-.141 0-.283-.015-.426-.046-4.171-.911-8.233-1.535-12.074-1.853-.985-.082-1.708-.863-1.617-1.746.091-.883.955-1.53 1.946-1.451 4.016.333 8.252.983 12.593 1.931.96.21 1.548 1.078 1.315 1.939-.199.734-.932 1.226-1.737 1.226zm255.243-6.611c-.227 0-.458-.039-.681-.121-.914-.337-1.349-1.276-.973-2.095a119.415 119.415 0 0 1 5.338-10.304c.459-.785 1.537-1.088 2.416-.678.875.411 1.214 1.381.756 2.166a115.808 115.808 0 0 0-5.2 10.038c-.285.619-.953.994-1.656.994zm11.621-19.816a1.93 1.93 0 0 1-.99-.269c-.823-.491-1.045-1.488-.498-2.226a99.287 99.287 0 0 1 7.644-9.105c.64-.675 1.767-.758 2.522-.183.752.575.844 1.588.204 2.263a96.195 96.195 0 0 0-7.392 8.805c-.343.464-.911.715-1.49.715zm16.157-17.013c-.483 0-.965-.174-1.318-.519-.669-.652-.622-1.668.105-2.268a103.64 103.64 0 0 1 9.829-7.171c.802-.518 1.921-.352 2.497.368.576.72.392 1.723-.411 2.24a100.35 100.35 0 0 0-9.491 6.926 1.905 1.905 0 0 1-1.211.424z"/><path fill="#82b4fc" d="M1345.996 768.128c-59.652 91.805-103.774 61-100.196 131.633 3.578 70.632 155.065 87.755 196.813-22.474 41.748-110.229 213.512-38.526 186.078-143.404-27.435-104.879-186.388-113.972-282.695 34.245z"/><path fill="#2983e5" d="M3067.331 1788.041c1.903-.331 3.622-.72 5.101-1.174 9.041-2.773 4.909-6.837-6.759-8.935 17.62-18.112 33.937-43.053 11.713-47.854-21.08-4.553-29.654 32.361-28.878 46.498a136.02 136.02 0 0 0-7.692.215c4.007-16.06-8.48-83.811-43.669-76.21-36.338 7.849-5.514 50.801 23.313 78.754a152.777 152.777 0 0 0-18.254 4.703c-4.099 1.334 1.866 2.904 11.981 4.037-19.313 16.568-45.624 51.989-24.395 71.371 28.671 26.177 46.094-29.523 51.414-69.843 2.579.022 5.148.008 7.662-.048 3.687 26.141 14.964 60.83 33.313 44.078 13.457-12.286-2.389-34.449-14.85-45.592zM2555.413 1006.367c-1.322-.33-2.693.367-3.06 1.553-2.208 7.146-7.218 18.446-8.947 20.712-1.09 1.383-9.204 5.041-13.104 6.799-2.359 1.063-4.252 1.917-5.362 2.512-1.916.205-8.821-1.666-16.513-4.165a13.616 13.616 0 0 0-1.509-2.309c16.745-.726 26.104-2.251 27.808-4.544.573-.771 2.041-2.402 3.596-4.129 5.439-6.043 9.329-10.518 9.833-13.075.291-1.482.031-4.813-.495-11.061-.568-6.759-1.346-16.016-.563-19.125.302-1.201-.539-2.395-1.877-2.667-1.334-.27-2.67.482-2.972 1.684-.947 3.761-.201 12.624.457 20.443.353 4.196.752 8.951.556 9.95-.355 1.664-6.062 8.003-8.803 11.049-1.658 1.841-2.989 3.32-3.726 4.273-1.958 1.066-11.753 2.077-21.746 2.622 4.355-3.568 7.105-8.688 7.105-14.397 0-10.776-9.737-19.512-21.748-19.512-12.011 0-21.748 8.736-21.748 19.512 0 5.668 2.71 10.755 7.011 14.32-9.514-.56-18.539-1.527-20.409-2.545-.737-.953-2.068-2.432-3.726-4.273-2.741-3.046-8.448-9.385-8.803-11.049-.197-.998.203-5.754.556-9.95.658-7.82 1.403-16.683.456-20.443-.302-1.202-1.638-1.954-2.972-1.684-1.339.271-2.18 1.465-1.877 2.667.783 3.109.005 12.366-.563 19.125-.525 6.249-.786 9.579-.495 11.061.504 2.557 4.393 7.032 9.833 13.075 1.555 1.727 3.023 3.358 3.596 4.129 1.663 2.237 10.623 3.742 26.611 4.489a13.6 13.6 0 0 0-1.804 2.842c-7.076 2.253-13.23 3.878-15.021 3.687-1.109-.595-3.003-1.449-5.362-2.512-3.899-1.758-12.014-5.416-13.104-6.799-1.729-2.266-6.739-13.566-8.947-20.712-.366-1.187-1.738-1.883-3.06-1.553-1.323.329-2.098 1.558-1.732 2.745 2.089 6.759 7.236 18.893 9.637 22.041 1.636 2.143 7.238 4.777 14.972 8.264 2.211.997 4.301 1.939 5.178 2.429.539.301 1.361.452 2.462.452 2.797 0 7.413-.976 13.789-2.906-.002.078-.013.154-.013.233 0 .224.026.443.037.665-2.495 1.297-8.435 4.432-10.875 6.115-2.75 1.898-14.016 11.819-14.265 16.515-.211 3.99.329 13.719 2.159 21.927.235 1.06 1.274 1.793 2.435 1.793.161 0 .325-.014.49-.044 1.346-.241 2.219-1.416 1.949-2.624-1.916-8.6-2.222-17.912-2.067-20.84.226-2.081 8.17-10.321 12.33-13.192 1.841-1.271 6.181-3.607 8.955-5.068.736 1.622 1.805 3.086 3.126 4.335-2.018 1.114-4 2.257-5.165 3.061-3.458 2.385-3.529 10.21-3.291 18.708.039 1.359.072 2.533.04 3.134-.172 3.258 1.23 5.079 3.557 8.097.678.88 1.458 1.891 2.329 3.107.356.497.956.769 1.569.769.346 0 .695-.086 1.007-.266.865-.5 1.116-1.534.559-2.311-.898-1.254-1.7-2.294-2.398-3.201-2.131-2.764-3.013-3.908-2.9-6.036.039-.722.006-1.894-.036-3.377-.1-3.568-.406-14.425 1.836-15.972 1.26-.87 3.668-2.228 5.958-3.471a16.769 16.769 0 0 0 8.192 2.112c3.268 0 6.296-.91 8.798-2.456 2.467 1.329 5.217 2.865 6.595 3.815 2.242 1.547 1.936 12.404 1.836 15.972-.043 1.483-.075 2.655-.037 3.377.113 2.128-.769 3.272-2.9 6.036-.698.906-1.5 1.947-2.398 3.201-.557.777-.306 1.812.56 2.311.312.18.661.266 1.007.266.613 0 1.213-.271 1.569-.769.871-1.217 1.65-2.227 2.329-3.107 2.327-3.018 3.729-4.839 3.557-8.097-.031-.6.001-1.774.04-3.134.238-8.497.166-16.322-3.291-18.708-1.318-.91-3.683-2.255-5.964-3.499a13.656 13.656 0 0 0 2.902-4.434c2.584 1.349 7.892 4.165 9.978 5.605 4.16 2.871 12.105 11.111 12.331 13.192.155 2.928-.151 12.24-2.067 20.84-.269 1.208.603 2.383 1.949 2.624.165.029.329.044.49.044 1.16 0 2.199-.733 2.434-1.793 1.83-8.208 2.37-17.936 2.159-21.927-.249-4.696-11.515-14.617-14.265-16.515-3.06-2.111-11.641-6.513-12.005-6.699-.025-.013-.053-.019-.078-.031 0-.017.003-.033.003-.05 0-.209-.025-.413-.035-.62 7.037 2.188 12.075 3.293 15.054 3.293 1.102 0 1.924-.15 2.462-.452.877-.49 2.967-1.432 5.178-2.429 7.734-3.487 13.336-6.121 14.972-8.264 2.402-3.148 7.549-15.282 9.637-22.041.372-1.187-.404-2.416-1.726-2.745z"/><path fill="#2983e5" d="M3113.902 466.957c-.452-1.266-1.969-1.962-3.376-1.555l-454.221 131.125c-36.479 2.177-66.053-6.626-80.053-24.12-10.745-13.428-11.402-31.019-1.902-49.588 63.489-58.492 102.54-76.448 103.139-76.715 1.326-.592 1.868-2.036 1.209-3.227-.657-1.191-2.268-1.678-3.594-1.088-.605.27-40.133 18.388-104.232 77.358-.214.112-.426.228-.604.395-.573.539-58.734 53.062-197.601 4.395-5.985-29.137-5.788-61.869 7.631-95.312.502-1.251-.221-2.631-1.615-3.081-1.393-.45-2.933.198-3.434 1.45-13.88 34.591-14.002 68.383-7.748 98.378-.428 2.785-26.685 168.547-115.15 230.403l-121.024 61.627c-1.29.657-1.741 2.126-1.01 3.283.495.781 1.402 1.22 2.337 1.22a2.91 2.91 0 0 0 1.322-.314l120.906-61.568c2.642-.598 23.778-4.857 39.799 7.567 17.49 13.564 23.248 41.479 17.13 82.955-61.423 103.027-124.025 232.755-178.078 400.629-.411 1.278.409 2.613 1.833 2.982.249.064.5.095.746.095 1.165 0 2.238-.686 2.577-1.74 53.974-167.626 116.483-297.121 177.804-399.939.906-1.283 64.839-90.631 176.474-125.997l-.886 274.31c-.003 1.33 1.193 2.411 2.677 2.415h.007c1.478 0 2.68-1.074 2.684-2.401l.893-276.803c8.147-8.2 89.39-88.807 167.472-123.68.896-.4 1.435-1.201 1.473-2.058l444.682-128.372c1.412-.407 2.187-1.763 1.733-3.029zm-542.009 108.259c12.695 15.863 36.874 25.131 67.063 26.32l-123.598 35.68c-6.532.013-10.903-1.65-13.269-5.082-7.874-11.414 7.222-40.1 14.007-50.703 17.434-18.991 33.787-35.522 48.887-49.852-5.192 16.223-2.873 31.413 6.91 43.637zm-181.82-1.295c18.873 12.443 64.967 36.716 112.071 15.278-17.596 19.649-36.197 41.729-55.644 66.501-7.211-7.337-30.75-32.586-49.938-67.927a268.28 268.28 0 0 1-4.493-8.663 79.442 79.442 0 0 0-1.996-5.189zm107.451 60.746c1.733 2.513 4.165 4.375 7.249 5.605l-51.187 14.777c16.636-21.063 32.631-40.137 47.885-57.384-5.561 12.451-10.151 28.007-3.947 37.002zm-101.507-37.178c18.556 31.855 39.659 54.475 46.509 61.446l-91.641 46.665c7.652-8.764 18.553-22.522 27.715-38.971 13.696-24.588 19.495-47.966 17.417-69.14zm41.754 69.404c-16.107 20.795-32.913 43.193-50.174 67.488-1.47-7.074-5.268-17.772-15.069-23.292-4.119-2.32-8.845-3.479-14.147-3.479-.2 0-.408.017-.609.02l79.999-40.737zm8.975-3.127 27.332 35.417c-12.279 1.179-45.806 5.944-72.069 24.01 15.381-21.235 30.352-40.971 44.737-59.427zm4.277-2.919 50.205-14.493c-12.855 8.893-28.835 24.046-27.59 43.799l-22.615-29.306zm74.548-116.051c11.486-2.627 20.772-6.013 28.046-9.336-12.95 12.568-26.742 26.686-41.274 42.496-58.982 38.337-120.936-8.744-127.032-13.596-4.504-10.744-8.49-22.437-11.412-34.835 72.124 24.693 122.18 22.015 151.672 15.271zm-176.952 73.898c11.953-33.792 18.804-64.254 21.991-80.455 2.774 10.042 6.192 19.564 9.947 28.448.026.052.027.109.057.16.018.029.032.059.05.089a259.316 259.316 0 0 0 6.363 13.853c20.76 60.658-44.724 126.934-49.42 131.573l-64.07 32.625c37.012-34.638 60.967-86.388 75.082-126.293zm-50.479 145.215c-10.393-8.035-22.368-9.937-31.359-9.944l73.715-37.537c12.2-4.861 22.015-5.288 29.164-1.269 11.288 6.345 13.171 22.07 13.451 25.565-21.022 29.858-42.68 62.541-64.533 98.562 3.581-36.744-3.254-62.091-20.438-75.377zm36.082 59.91c18.221-29.218 36.253-56.149 53.837-81.104 26.412-32.647 80.056-38.239 89.531-38.981l14.069 18.231c-75.386 23.811-129.387 71.85-157.437 101.854zm161.908-104.52-14.777-19.148c-13.876-35.22 37.186-58.2 37.704-58.429.419-.184.731-.474.985-.799l126.491-36.516c-69.648 36.394-137.281 101.861-150.403 114.892z"/><path fill="#e0492f" d="M2556.601 2213.74a8.453 8.453 0 0 1-9.819-6.818l-19.507-108.143a8.453 8.453 0 0 1 16.637-3.001l19.506 108.143a8.451 8.451 0 0 1-6.817 9.819zM2644.607 2274.849a8.453 8.453 0 0 1 6.818-9.819l108.143-19.507a8.453 8.453 0 0 1 3.001 16.637l-108.143 19.507a8.452 8.452 0 0 1-9.819-6.818zM2613.26 2226.068a8.452 8.452 0 0 1-2.122-11.764l62.676-90.262a8.452 8.452 0 0 1 11.764-2.122 8.452 8.452 0 0 1 2.122 11.764l-62.676 90.262a8.453 8.453 0 0 1-11.764 2.122z"/><path fill="#f6816b" d="M2395.146 2262.716c-12.721 15.709-267.952-27.375-428.623-65.145 17.177-23.975 43.675-51.672 83.216-72.928 129.36 56.325 404.343 92.663 436.584 115.422 40.544 28.626-73.804 1.18-91.177 22.651z"/><path fill="#024389" d="M2049.739 2124.642c-39.541 21.256-66.04 48.953-83.216 72.928-58.811-13.848-104.955-26.963-121.899-36.231-63.249-34.603 140.721-84.433 140.721-84.433 7.283 17.32 30.972 33.208 64.394 47.736z"/><path fill="#0049a7" d="M2256.935 2235.768c-3.168-2.683-3.148-7.914.045-11.684l124.29-146.788c3.193-3.771 8.349-4.653 11.517-1.97s3.148 7.914-.045 11.684l-124.29 146.788c-3.193 3.771-8.349 4.653-11.517 1.97z"/><path fill="#005cc1" d="M2381.803 2088.298c-19.785-16.752-4.012-65.634 36.69-113.703s86.314-71.684 106.099-54.932 4.012 65.634-36.69 113.703c-40.701 48.069-86.314 71.685-106.099 54.932zm131.227-154.98c-10.966-9.286-48.82 10.548-83.065 50.991s-47.567 81.049-36.6 90.334c10.966 9.286 48.82-10.548 83.065-50.991 34.244-40.443 47.566-81.049 36.6-90.334z"/><path fill="#001f44" d="M1313.194 2602.969c-148.111 18.608-282.212-.573-332.023-3.489l-5.672-56.342c83.932-14.868 232.454-41.206 242.867-77.634 14.314-50.098 39.363-181.318 45.231-274.16 0 0 214.204 103.881 224.939 152.19s9.841 236.176-175.342 259.435z"/><path fill="#0049a7" d="M2068.83 1981.527c-3.4 19.57-3.31 45.05.52 59.91.01.02.03.05.03.07.28 1.1.58 2.16.92 3.14-33.22 32.49-68.33 59.25-103.23 81.38-3.06 1.94-6.11 3.85-9.16 5.71-46.95 28.74-93.19 49.26-133.62 64.26-75.82 28.14-131.21 36.87-132.43 44.07 0 0-39.35-10.42-96.15-22.14-3.59-.74-7.25-1.49-10.98-2.24-85.17-17.13-203.93-35.79-290.09-28.45-10.92.94-21.31 2.28-31.04 4.1 2.88-127.23 87.43-267.75 214.2-333.89 144.08-75.18 320.66-69.68 489.63 24.08 36.28 20.12 72.22 44.32 107.4 72.66v.02c-1.75 5.861-3.78 14.55-6 27.32z"/><path fill="#f9ae93" d="M2372.996 1945.132c-17.59 33.992 3.887 42.354 0 52.193-3.865 9.839-35.78-9.539-37.568-6.263-25.052 52.782-87.374 53.67-135.68 37.568-11.472-3.82-22.887-6.13-33.637-7.429-.011 0-.022-.011-.033-.011-25.941-3.132-47.951-.378-57.279 1.177.91-7.418 1.277-24.098.966-37.224 37.968-4.52 118.034-28.396 123.975-117.535 0 0 17.857-8.995 42.632-19.323 25.597-10.661 58.567-22.743 86.84-27.773 26.841-4.797 49.45-3.243 57.501 11.893 3.765 7.074 5.686 13.814 6.174 20.278 1.222 16.047-6.341 30.394-16.435 43.931-12.615 16.903-29.172 32.516-37.456 48.518z"/><path fill="#005cc1" d="M2108.801 2022.371c-.179 1.503-.394 2.63-.608 3.274-2.076 5.976-19.073 28.627-30.417 28.037-3.167-.161-5.636-3.578-7.479-9.036-4.741-14.152-5.117-42.046-1.467-63.123 2.219-12.775 4.258-21.453 5.994-27.321v-.018c2.219-7.533 3.9-10.431 4.742-11.433 2.308-2.755 26.248 19.985 28.627 24.458.877 1.629 1.378 8.946 1.574 17.928.304 13.134-.054 29.809-.966 37.234z"/><path fill="#002760" d="m1300.777 2644.443-18.465-57.398c77.92-19.467 221.218-48.827 263.479-97.691 57.255-66.201-141.347-10.735-241.543-153.872-29.2-41.725-41.85-91.804-40.651-144.139 143.083-26.767 428.265 48.72 428.265 48.72-2.433 14.314 147.95 71.568 152.727 221.862 4.49 141.062-467.574 174.95-543.812 182.518z"/><path fill="#005cc1" d="M1286.946 2758.326c-4.76-4.76-69.779-135.372-55.465-153.872 3.757-4.849 23.17-10.503 50.831-17.409l18.465 57.398c-4.992.483-8.284.877-9.644 1.163-22.079 4.777.59 117.498-4.187 112.72zM981.17 2599.48c-12.453-.734-19.645-.447-20.451 1.7-4.026 10.735-24.154 103.327-25.943 101.985-1.789-1.342-25.353-139.862-15.799-148.2 2.612-2.272 25.013-6.244 56.521-11.826l5.672 56.341z"/><path fill="#f6816b" d="M2166.077 2021.19c-25.941-3.132-47.951-.378-57.279 1.177.91-7.418 1.277-24.098.966-37.224 0 0 2.254 19.611 4.475 25.441s17.202.834 51.838 10.606zM2410.452 1896.615c-15.614-3.154-27.751-33.17-27.751-33.17l-33.104-15.069s-31.027 29.783-73.226 19.234c0 0-1.666-9.162 0-19.323 25.597-10.661 58.567-22.743 86.84-27.773 19.689 4.131 37.779 15.946 57.524 27.862 2.321 1.399 4.364 2.832 6.152 4.309 1.223 16.045-6.34 30.393-16.435 43.93z"/><path fill="#023891" d="M2263.71 1831.821c-30.864-42.494-16.998-81.409-4.473-85.435 12.524-4.026 13.866 21.023 20.129 6.262s-18.34-59.491 27.285-59.044c45.625.447 33.548 59.491 45.177 35.337 11.63-24.154 33.548-29.075 51.44-23.707 17.892 5.368 21.023 46.072 24.154 43.836 3.131-2.236 39.81-31.311 56.36 4.92 16.55 36.231-23.26 53.229-18.787 59.491 4.473 6.262 24.602 28.18 7.604 59.044-16.998 30.864-64.859 6.262-71.121-7.157 0 0-41.599 12.972-51.887-16.998 0 0-24.602 13.667-70.226 9.07-45.624-4.596-15.655-25.619-15.655-25.619z"/><path fill="#f9ae93" d="M2285.181 1877.446c9.841-57.255-42.494-94.828-62.622-48.309-20.128 46.519 21.471 82.751 36.232 76.936s26.39-28.627 26.39-28.627z"/><path fill="#f6816b" d="M2266.1 1865.665c0-29.408-11.799-37.063-22.071-19.85-10.272 17.213 14.02 24.986 15.408 33.176s6.663-3.47 6.663-13.326z"/><path fill="#024389" d="M2068.832 1981.523c-3.398 19.578-3.309 45.053.522 59.911-9.362-33.248-8.495-68.806-25.353-83.509-9.883-8.618-26.796-40.489-76.568-76.402 36.28 20.122 72.215 44.32 107.396 72.659v.022c-1.744 5.864-3.777 14.549-5.997 27.319z"/><path fill="#3d9df4" d="M1456.811 2080.37c-13.164 9.364-24.938 15.404-26.299 13.491-1.36-1.913 8.208-11.054 21.372-20.417 13.164-9.363 24.938-15.403 26.299-13.491 1.36 1.912-8.208 11.053-21.372 20.417zM1572.349 1849.046c-16.048 1.846-29.276 1.453-29.544-.879-.268-2.332 12.524-5.719 28.573-7.565s29.276-1.453 29.544.879c.267 2.331-12.525 5.718-28.573 7.565zM1831.04 1846.521c-15.227-5.394-26.936-11.56-26.152-13.772.784-2.212 13.763.366 28.99 5.76 15.227 5.394 26.936 11.56 26.152 13.772-.783 2.213-13.763-.366-28.99-5.76zM1846.256 1946.527c-15.227-5.394-26.936-11.56-26.152-13.772.784-2.213 13.763.366 28.991 5.76 15.227 5.394 26.936 11.56 26.152 13.772s-13.764-.366-28.991-5.76zM1965.104 1911.968c-15.227-5.394-26.936-11.56-26.152-13.772s13.763.366 28.99 5.76c15.227 5.394 26.936 11.56 26.152 13.772-.783 2.213-13.763-.366-28.99-5.76zM2033.013 1989.15c-15.227-5.394-26.936-11.56-26.152-13.772s13.763.366 28.99 5.76c15.227 5.394 26.936 11.56 26.152 13.772-.783 2.212-13.763-.367-28.99-5.76zM1512.79 1935.691c-13.164 9.364-24.938 15.404-26.299 13.491-1.36-1.913 8.208-11.054 21.372-20.417 13.164-9.363 24.938-15.403 26.299-13.491 1.361 1.912-8.208 11.053-21.372 20.417zM1690.254 2089.465c-13.164 9.364-24.938 15.404-26.299 13.491-1.361-1.913 8.208-11.054 21.372-20.417 13.164-9.363 24.938-15.403 26.299-13.491 1.36 1.912-8.208 11.053-21.372 20.417zM1317.79 2158.009c-13.164 9.364-24.938 15.404-26.299 13.491-1.36-1.913 8.208-11.054 21.372-20.417 13.164-9.364 24.938-15.404 26.299-13.491 1.361 1.913-8.208 11.054-21.372 20.417zM1369.448 1982.25c-13.164 9.364-24.938 15.403-26.299 13.491-1.36-1.913 8.208-11.054 21.372-20.417 13.164-9.363 24.938-15.404 26.299-13.491 1.361 1.912-8.208 11.053-21.372 20.417zM1525.711 2143.698c-13.164 9.363-24.938 15.403-26.299 13.491-1.36-1.913 8.208-11.054 21.372-20.417 13.164-9.363 24.938-15.403 26.299-13.491 1.36 1.913-8.208 11.054-21.372 20.417zM1615.254 2021.369c-13.164 9.363-24.938 15.403-26.299 13.491-1.361-1.913 8.208-11.054 21.372-20.417 13.164-9.364 24.938-15.404 26.299-13.491s-8.208 11.053-21.372 20.417zM1598.29 2216.107c-.87.62-1.73 1.22-2.58 1.82-3.59-.74-7.25-1.49-10.98-2.24 2.61-2.09 5.52-4.29 8.63-6.5 13.17-9.37 24.94-15.41 26.3-13.49 1.36 1.91-8.21 11.051-21.37 20.41zM1751.254 2198.803c-13.164 9.363-24.938 15.403-26.299 13.491-1.361-1.913 8.208-11.054 21.372-20.417 13.164-9.364 24.938-15.404 26.299-13.491 1.36 1.912-8.208 11.053-21.372 20.417zM1694.326 1911.425c-13.164 9.364-24.938 15.403-26.299 13.491-1.36-1.913 8.208-11.054 21.372-20.417 13.164-9.363 24.938-15.403 26.299-13.491 1.361 1.913-8.208 11.054-21.372 20.417z"/><path fill="#f9ae93" d="M2309.786 2182.5c-59.9 22.166-522.631 123.32-605.341-42.265-7.463-14.958-11.838-32.093-12.526-51.66-.311-8.373.678-16.18 2.754-23.443 60.844 42.099 136.069 51.793 194.592 51.294-.033 2.632.533 5.286 1.844 7.929 20.577 42.043 262.321 49.206 353.903 34.892 91.604-14.314 71.927-66.197 101.455-59.045 29.516 7.162 28.616 58.145-36.681 82.298z"/><path fill="#005cc1" d="M2007.38 2025.108c-1.9 2.18-4.17 4.36-6.74 6.55-32.09 27.33-110.91 55.34-111.38 84.77-7.42.06-15.1-.04-23-.34h-.01c-8.58-.34-17.41-.93-26.4-1.82 0 0-.01.01-.01 0-47.92-4.74-100.42-18.18-145.17-49.13 4.97-17.28 16.25-31.48 31.73-43a131.6 131.6 0 0 1 8.58-5.84c84.58-52.9 265.14-40.16 277.79-11.23 2.91 6.65.49 13.329-5.39 20.04z"/><path fill="#f6816b" d="M1889.265 2116.426c-46.263 11.405-156.946-22.643-171.749-11.171-7.607 5.897-11.693 20.1-13.07 34.98-7.463-14.958-11.838-32.093-12.526-51.66-.311-8.373.678-16.18 2.754-23.443 60.843 42.099 136.068 51.794 194.591 51.294z"/><ellipse cx="1845.175" cy="2027.238" fill="#3d9df4" rx="4.25" ry="29.25" transform="rotate(-70.494 1845.2 2027.263)"/><path fill="#3d9df4" d="M1866.25 2116.087c-8.58-.34-17.41-.93-26.4-1.82 0 0-.01.01-.01 0-13.27-5.01-22.95-10.31-22.24-12.33.79-2.22 13.77.36 28.99 5.76 7.93 2.811 14.91 5.821 19.66 8.39zM1754.73 2027.667c-.77 2.19-13.39-.29-28.33-5.53a131.6 131.6 0 0 1 8.58-5.84c11.97 4.71 20.42 9.48 19.75 11.37zM2007.38 2025.108c-1.9 2.18-4.17 4.36-6.74 6.55-.39-.13-.79-.27-1.18-.41-15.23-5.4-26.94-11.56-26.15-13.78.78-2.21 13.76.37 28.99 5.76 1.75.62 3.44 1.25 5.08 1.88zM1967.07 2126.028c-3.06 1.94-6.11 3.85-9.16 5.71-13.72-5.11-23.85-10.6-23.11-12.67.78-2.21 13.76.37 28.99 5.76 1.12.4 2.21.799 3.28 1.2zM1311.34 2620.103a1.499 1.499 0 0 1-.233-2.981c3.287-.523 7.285-1.173 11.911-1.949a1.501 1.501 0 0 1 .497 2.959c-4.635.778-8.642 1.429-11.936 1.954-.081.011-.16.017-.239.017zm23.81-3.99a1.501 1.501 0 0 1-.257-2.977c3.707-.65 7.665-1.355 11.851-2.117a1.5 1.5 0 0 1 .537 2.951c-4.192.763-8.157 1.47-11.87 2.12a1.552 1.552 0 0 1-.261.023zm23.701-4.313a1.5 1.5 0 0 1-.277-2.974c3.799-.717 7.741-1.473 11.811-2.267a1.5 1.5 0 0 1 .575 2.945c-4.076.796-8.024 1.553-11.829 2.271a1.684 1.684 0 0 1-.28.025zm23.621-4.612a1.5 1.5 0 0 1-.296-2.97c3.837-.774 7.765-1.58 11.775-2.416a1.501 1.501 0 0 1 .612 2.937c-4.016.837-7.95 1.644-11.793 2.42a1.584 1.584 0 0 1-.298.029zm23.551-4.913a1.5 1.5 0 0 1-.314-2.966c3.853-.83 7.769-1.687 11.738-2.57a1.5 1.5 0 1 1 .651 2.928c-3.976.885-7.897 1.743-11.757 2.575a1.583 1.583 0 0 1-.318.033zm23.475-5.226a1.5 1.5 0 0 1-.334-2.962c3.859-.887 7.761-1.799 11.697-2.734a1.501 1.501 0 0 1 .693 2.919c-3.943.937-7.852 1.85-11.719 2.739a1.489 1.489 0 0 1-.337.038zm23.395-5.559a1.5 1.5 0 0 1-.356-2.957c3.86-.948 7.746-1.918 11.652-2.911a1.5 1.5 0 1 1 .739 2.907c-3.914.995-7.808 1.967-11.675 2.917-.121.03-.242.044-.36.044zm23.303-5.924a1.5 1.5 0 0 1-.381-2.951c3.855-1.014 7.723-2.05 11.599-3.106a1.5 1.5 0 1 1 .789 2.895 1346.803 1346.803 0 0 1-11.625 3.113 1.528 1.528 0 0 1-.382.049zm23.193-6.325a1.501 1.501 0 0 1-.407-2.944c3.845-1.087 7.692-2.196 11.536-3.324a1.5 1.5 0 1 1 .846 2.879c-3.854 1.132-7.71 2.243-11.565 3.333a1.57 1.57 0 0 1-.41.056zm23.065-6.778a1.5 1.5 0 0 1-.438-2.935 1021.44 1021.44 0 0 0 11.465-3.575 1.5 1.5 0 1 1 .91 2.858c-3.76 1.197-7.629 2.403-11.499 3.585a1.448 1.448 0 0 1-.438.067zm22.887-7.288a1.5 1.5 0 0 1-.473-2.924 876.132 876.132 0 0 0 11.361-3.86 1.5 1.5 0 1 1 .986 2.833 882.079 882.079 0 0 1-11.4 3.874 1.512 1.512 0 0 1-.474.077zm22.705-7.898a1.5 1.5 0 0 1-.513-2.91 721.606 721.606 0 0 0 11.235-4.201 1.5 1.5 0 0 1 1.075 2.801 734.184 734.184 0 0 1-11.282 4.218 1.482 1.482 0 0 1-.515.092zm22.441-8.615a1.5 1.5 0 0 1-.564-2.891 579.598 579.598 0 0 0 11.065-4.613 1.5 1.5 0 1 1 1.183 2.757 576.62 576.62 0 0 1-11.123 4.636 1.476 1.476 0 0 1-.561.111zm22.085-9.493a1.5 1.5 0 0 1-.625-2.864 448.058 448.058 0 0 0 10.827-5.126 1.5 1.5 0 0 1 1.32 2.694 450.228 450.228 0 0 1-10.899 5.16 1.5 1.5 0 0 1-.623.136zm21.573-10.597a1.501 1.501 0 0 1-.703-2.826 328.14 328.14 0 0 0 10.471-5.785 1.5 1.5 0 0 1 1.5 2.598 332.176 332.176 0 0 1-10.567 5.839 1.5 1.5 0 0 1-.701.174zm20.796-12.039a1.5 1.5 0 0 1-.807-2.765 224.936 224.936 0 0 0 9.897-6.667 1.5 1.5 0 1 1 1.744 2.442 229.513 229.513 0 0 1-10.03 6.756 1.489 1.489 0 0 1-.804.234zm19.508-13.996a1.5 1.5 0 0 1-.952-2.661 142.856 142.856 0 0 0 8.877-7.883 1.5 1.5 0 0 1 2.088 2.154 145.782 145.782 0 0 1-9.064 8.05 1.49 1.49 0 0 1-.949.34zm17.13-16.738a1.5 1.5 0 0 1-1.153-2.458c2.608-3.142 4.919-6.344 6.869-9.516a1.5 1.5 0 0 1 2.556 1.57c-2.023 3.293-4.417 6.611-7.116 9.862a1.499 1.499 0 0 1-1.156.542zm12.309-20.333a1.5 1.5 0 0 1-1.399-2.04c1.414-3.67 2.411-7.411 2.959-11.119a1.501 1.501 0 0 1 2.968.44c-.582 3.926-1.634 7.882-3.128 11.758-.23.595-.798.961-1.4.961zm3.377-23.326a1.5 1.5 0 0 1-1.492-1.364 51.629 51.629 0 0 0-.464-3.639 88.743 88.743 0 0 0-1.671-7.901 1.5 1.5 0 1 1 2.903-.754 91.048 91.048 0 0 1 1.728 8.171c.21 1.281.375 2.577.491 3.853a1.5 1.5 0 0 1-1.495 1.634zm-5.928-23.114a1.5 1.5 0 0 1-1.391-.938 98.76 98.76 0 0 0-5.07-10.627 1.5 1.5 0 0 1 2.627-1.449 101.591 101.591 0 0 1 5.225 10.952 1.5 1.5 0 0 1-1.391 2.062zm-11.482-20.937a1.5 1.5 0 0 1-1.231-.641 131.383 131.383 0 0 0-7.223-9.382 1.5 1.5 0 1 1 2.294-1.933 134.985 134.985 0 0 1 7.389 9.597 1.5 1.5 0 0 1-1.229 2.359zm-15.382-18.351c-.389 0-.777-.15-1.071-.449a189.619 189.619 0 0 0-8.606-8.22 1.5 1.5 0 1 1 2.005-2.231 192.98 192.98 0 0 1 8.743 8.351 1.5 1.5 0 0 1-1.071 2.549zm-17.816-16.064c-.331 0-.665-.109-.942-.333a281.012 281.012 0 0 0-9.45-7.302 1.5 1.5 0 1 1 1.785-2.411 284.392 284.392 0 0 1 9.551 7.38 1.5 1.5 0 0 1-.944 2.666zm-19.28-14.312c-.293 0-.589-.086-.848-.264a427.435 427.435 0 0 0-9.961-6.637 1.5 1.5 0 1 1 1.629-2.519 428.247 428.247 0 0 1 10.032 6.684 1.5 1.5 0 0 1-.852 2.736zm-20.16-13.066c-.268 0-.54-.072-.785-.223a708.756 708.756 0 0 0-10.267-6.192 1.5 1.5 0 1 1 1.528-2.582c3.6 2.131 7.069 4.223 10.311 6.219a1.499 1.499 0 0 1-.787 2.778zm-20.694-12.271c-.253 0-.511-.064-.746-.2a1450.522 1450.522 0 0 0-10.435-5.94 1.5 1.5 0 1 1 1.474-2.612c3.488 1.969 6.977 3.952 10.456 5.952a1.5 1.5 0 0 1-.749 2.8zm-20.902-11.819c-.248 0-.5-.062-.731-.191l-10.488-5.87a1.5 1.5 0 0 1 1.468-2.617l10.485 5.869a1.501 1.501 0 0 1-.734 2.809zm-20.955-11.773c-.251 0-.505-.063-.74-.196a1119.687 1119.687 0 0 1-10.434-5.998 1.5 1.5 0 1 1 1.51-2.592 1123.09 1123.09 0 0 0 10.405 5.981 1.5 1.5 0 0 1-.741 2.805zm-20.754-12.123c-.265 0-.533-.07-.776-.217a486.243 486.243 0 0 1-10.236-6.368 1.5 1.5 0 1 1 1.618-2.526 486.935 486.935 0 0 0 10.172 6.328 1.5 1.5 0 0 1-.778 2.783zm-20.215-12.992c-.294 0-.59-.086-.851-.266a257.24 257.24 0 0 1-9.789-7.085 1.5 1.5 0 1 1 1.818-2.385c2.99 2.28 6.245 4.635 9.674 7.001a1.499 1.499 0 0 1-.852 2.735zm-19.051-14.611c-.349 0-.7-.121-.984-.368-3.203-2.787-6.165-5.594-8.806-8.343a1.5 1.5 0 1 1 2.164-2.078c2.579 2.685 5.475 5.429 8.611 8.157a1.5 1.5 0 0 1-.985 2.632zm-16.482-17.359c-.457 0-.909-.208-1.203-.603-2.545-3.411-4.726-6.886-6.48-10.33a1.5 1.5 0 1 1 2.672-1.362c1.678 3.293 3.768 6.623 6.212 9.898a1.5 1.5 0 0 1-1.201 2.397zm-10.603-21.217a1.5 1.5 0 0 1-1.451-1.124 50.518 50.518 0 0 1-1.614-12.107 1.5 1.5 0 0 1 1.484-1.516c.864.02 1.507.656 1.516 1.484a47.511 47.511 0 0 0 1.518 11.388 1.5 1.5 0 0 1-1.453 1.875z"/><path fill="#3d9df4" d="M1310.455 2632.395a1.5 1.5 0 0 1-.242-2.98c1.094-.18 110.562-18.369 216.157-51.21 61.947-19.266 110.444-39.724 144.145-60.806 41.699-26.085 60.583-53.089 56.129-80.261-9.804-59.806-79.264-99.278-140.548-134.103-52.181-29.652-101.467-57.659-106.789-93.934a1.499 1.499 0 1 1 2.968-.436c5.11 34.825 53.778 62.481 105.303 91.761 61.868 35.157 131.991 75.005 142.027 136.225 4.669 28.481-14.68 56.506-57.508 83.296-33.923 21.219-82.661 41.786-144.861 61.129-105.792 32.9-215.44 51.117-216.535 51.298a1.477 1.477 0 0 1-.246.021zM992.239 2578.738c-3.98 0-6.254-.01-6.457-.011a1.5 1.5 0 0 1 .008-3c.161-.008 2.441.011 6.497.011 34.355 0 195.172-.724 248.139-13.966 58.734-14.683 109.288-103.003 126.425-161.027a1.5 1.5 0 0 1 2.877.849c-9.467 32.052-27.351 68.474-47.839 97.429-17.834 25.204-46.318 57.054-80.736 65.658-53.313 13.33-214.58 14.057-248.914 14.057z"/><path fill="#3d9df4" d="M1007.735 2570.422h-.002c-4.5-.007-8.53-.025-12.01-.047a1.5 1.5 0 0 1 .01-3h.01c3.475.022 7.5.04 11.995.047a1.5 1.5 0 0 1-.003 3zm12.006-.008a1.5 1.5 0 0 1-.004-3c3.799-.011 7.813-.03 12.01-.06a1.5 1.5 0 0 1 .022 3c-4.202.03-8.219.049-12.023.06h-.005zm-36.012-.15h-.02l-1.909-.026c-.691-.01-2.13-.031-2.13-1.51 0-.84.73-1.534 1.533-1.5.059.001.937.015 2.544.036a1.5 1.5 0 0 1-.018 3zm60.042-.023a1.5 1.5 0 0 1-.018-3c3.895-.045 7.903-.1 12.008-.167a1.5 1.5 0 0 1 .049 3c-4.109.066-8.123.121-12.021.167h-.018zm24.028-.39a1.5 1.5 0 0 1-.031-3c3.941-.083 7.948-.177 12.004-.283a1.502 1.502 0 0 1 1.539 1.46 1.5 1.5 0 0 1-1.46 1.539c-4.061.106-8.072.2-12.019.283l-.033.001zm24.02-.63a1.5 1.5 0 0 1-.046-2.999c3.972-.126 7.976-.265 11.997-.417.813-.035 1.524.615 1.556 1.442s-.614 1.524-1.442 1.556c-4.027.152-8.037.291-12.016.417l-.049.001zm24.024-.912a1.5 1.5 0 0 1-.066-2.998c3.997-.178 7.998-.371 11.988-.579a1.5 1.5 0 0 1 .156 2.996c-3.998.208-8.006.401-12.01.58l-.068.001zm23.98-1.253a1.5 1.5 0 0 1-.09-2.997c4.02-.244 8.016-.505 11.973-.784a1.5 1.5 0 1 1 .211 2.993c-3.967.28-7.973.541-12.002.786l-.092.002zm23.966-1.697a1.5 1.5 0 0 1-.121-2.995c4.1-.337 8.119-.694 11.947-1.061a1.509 1.509 0 0 1 1.636 1.35 1.5 1.5 0 0 1-1.35 1.636c-3.841.369-7.874.727-11.988 1.064a1.302 1.302 0 0 1-.124.006zm23.917-2.308a1.499 1.499 0 0 1-.167-2.99c4.132-.468 8.133-.963 11.891-1.472a1.5 1.5 0 1 1 .403 2.973c-3.78.512-7.802 1.01-11.956 1.48a1.661 1.661 0 0 1-.171.009zm23.804-3.254a1.5 1.5 0 0 1-.243-2.98c4.19-.693 8.142-1.429 11.748-2.186a1.501 1.501 0 0 1 .616 2.936 284.44 284.44 0 0 1-11.874 2.21c-.082.013-.165.02-.247.02zm23.482-5.041a1.5 1.5 0 0 1-.41-2.943c.602-.171 1.193-.345 1.773-.521a75.864 75.864 0 0 0 9.275-3.507 1.5 1.5 0 0 1 1.237 2.733 78.886 78.886 0 0 1-9.643 3.646c-.596.18-1.203.358-1.82.535a1.539 1.539 0 0 1-.412.057zm21.828-9.755a1.5 1.5 0 0 1-.788-2.778 118.926 118.926 0 0 0 9.753-6.725 1.5 1.5 0 1 1 1.819 2.386 122.004 122.004 0 0 1-10 6.895c-.244.15-.516.222-.784.222zm19.108-14.48a1.5 1.5 0 0 1-1.003-2.616 183.97 183.97 0 0 0 8.588-8.252 1.5 1.5 0 1 1 2.145 2.097c-2.9 2.968-5.837 5.79-8.729 8.387a1.488 1.488 0 0 1-1.001.384zm16.81-17.14a1.5 1.5 0 0 1-1.127-2.489 263.129 263.129 0 0 0 7.662-9.164 1.5 1.5 0 1 1 2.343 1.872 265.986 265.986 0 0 1-7.749 9.269 1.496 1.496 0 0 1-1.129.512zm15.016-18.757a1.5 1.5 0 0 1-1.207-2.389c2.305-3.13 4.632-6.41 6.918-9.751a1.5 1.5 0 1 1 2.476 1.694 350.806 350.806 0 0 1-6.977 9.835c-.294.4-.749.611-1.21.611zm13.577-19.816a1.5 1.5 0 0 1-1.262-2.309c2.111-3.3 4.234-6.725 6.309-10.179a1.5 1.5 0 1 1 2.571 1.545 430.66 430.66 0 0 1-6.353 10.251 1.5 1.5 0 0 1-1.265.692zm12.381-20.6a1.5 1.5 0 0 1-1.304-2.239 474.268 474.268 0 0 0 5.764-10.504 1.5 1.5 0 1 1 2.648 1.41 476.206 476.206 0 0 1-5.801 10.571 1.498 1.498 0 0 1-1.307.762zm11.298-21.218a1.5 1.5 0 0 1-1.34-2.172 440.893 440.893 0 0 0 5.218-10.785 1.501 1.501 0 0 1 2.719 1.269 446.937 446.937 0 0 1-5.254 10.858 1.5 1.5 0 0 1-1.343.83zm10.148-21.798a1.5 1.5 0 0 1-1.379-2.088c1.897-4.454 3.438-8.396 4.339-11.101a1.5 1.5 0 1 1 2.846.948c-.926 2.779-2.498 6.802-4.425 11.327a1.5 1.5 0 0 1-1.381.914z"/></svg>